<svg width="40" height="40" viewBox="0 0 40 40" fill="none" xmlns="http://www.w3.org/2000/svg">
<path d="M1.23345 20.3283C-0.533351 21.3361 -0.369179 24.0236 1.51489 24.8048L12.4831 29.3751V37.4453C12.4831 38.8594 13.6245 40 15.0395 40C15.7978 40 16.5171 39.6641 17.0018 39.0781L21.8487 33.2735L31.5349 37.3047C33.0124 37.9219 34.7245 36.9531 34.9668 35.375L39.9702 2.87528C40.1187 1.92997 39.7044 0.976854 38.9148 0.437795C38.1252 -0.101263 37.0932 -0.148138 36.2567 0.328421L1.23345 20.3283ZM5.30647 22.3204L32.0039 7.07837L14.8362 26.2501L14.9301 26.3282L5.30647 22.3204ZM31.5036 33.2344L18.4793 27.8048L35.217 9.1096L31.5036 33.2344Z" fill="#DAD9D9"/>
</svg>
