<svg width="67" height="40" viewBox="0 0 67 40" fill="none" xmlns="http://www.w3.org/2000/svg">
<path d="M17.8302 0.429387C18.3915 1.01499 18.4381 1.90656 18.5962 2.66846C19.0014 4.85281 19.119 7.11215 19.5627 9.29043C19.9862 11.2722 19.5546 14.8628 22.7177 13.3025C25.36 12.0401 27.9273 11.1303 30.8047 10.0868C31.7246 9.76661 32.5797 9.27016 33.5767 9.31474C35.2038 9.42011 36.6648 10.2549 38.1784 10.798C40.3547 11.7119 42.4884 12.7433 44.7517 13.4525C45.1813 13.5801 45.698 13.7118 46.1215 13.5862C47.1144 13.2154 47.0172 11.8456 47.1995 10.9682C47.5643 8.39885 47.9148 5.77478 48.3647 3.21151C48.5247 2.36856 48.4862 1.44254 48.934 0.688754C49.3271 -0.00626933 50.2957 -0.117716 50.7942 0.530702C51.24 1.07578 51.3291 1.8397 51.4345 2.51851C51.5682 3.44858 51.6756 4.38676 51.8013 5.34521C52.0627 7.10809 52.2977 8.86288 52.5854 10.6258C52.7496 11.5092 52.6624 12.6034 53.3109 13.3045C54.0363 13.9975 55.1325 13.414 55.9309 13.1364C56.4577 12.9297 56.9886 12.7108 57.5154 12.494C59.3472 11.7362 61.2074 11.0108 63.0209 10.2833C63.9409 9.93277 64.8547 9.33501 65.8699 9.41403C66.6966 9.46672 67.2478 10.2975 66.881 11.0655C66.2711 12.265 64.9439 12.8952 63.9226 13.7017C62.5934 14.6926 61.331 15.8212 60.024 16.8445C59.2338 17.5132 58.2814 18.1332 57.5884 18.9073C56.7394 19.811 57.5175 20.731 58.3179 21.3247C59.2682 22.0379 60.1578 22.814 61.0676 23.5779C62.794 25.0389 64.7534 26.2385 66.3988 27.8413C67.262 28.6498 67.2843 30.1675 65.88 30.3458C64.9479 30.4268 64.0949 29.9 63.2438 29.594C62.7474 29.3995 62.2489 29.2192 61.7504 29.0246C60.2145 28.4248 58.6907 27.8088 57.1548 27.1746C56.2186 26.8848 54.5104 25.7825 53.6027 26.283C53.1001 26.591 52.9623 27.3124 52.8509 27.8656C52.4031 30.6923 52.2086 33.4805 51.7729 36.2788C51.6615 37.2879 51.5824 38.5888 50.9077 39.4115C50.3869 40.07 49.2481 40.064 48.7922 39.3183C48.4538 38.7975 48.3707 38.1329 48.2512 37.5311C47.9634 35.9708 47.8297 34.3295 47.6534 32.7307C47.5521 31.8858 47.3738 31.0631 47.2623 30.2222C47.1002 29.1097 47.084 27.7663 46.6666 26.7167C46.0749 25.3185 44.079 26.6599 43.0395 26.9882C41.5097 27.5941 40.2898 28.0905 38.8187 28.7065C32.4885 31.3508 33.7448 30.9942 27.3883 28.3519C25.7835 27.6792 24.4988 27.201 22.7764 26.5708C21.9051 26.2466 20.7988 25.8028 20.3429 26.8403C19.9173 27.9973 19.9153 29.2941 19.6701 30.4896C19.4391 31.9263 19.433 33.3954 19.1109 34.8138C19.0116 35.2677 18.9021 35.7135 18.8393 36.1734C18.6711 37.2251 18.7866 38.5077 18.1261 39.4135C17.6296 40.0984 16.4787 40.0376 15.9984 39.3649C15.6884 38.9677 15.5709 38.4632 15.4676 37.9687C14.8333 34.7976 14.7766 31.517 14.2579 28.3195C13.9478 26.1452 13.3703 25.7136 11.3075 26.5546C8.2924 27.6893 5.39478 29.1077 2.38369 30.1796C1.61775 30.4755 0.495172 30.5302 0.110174 29.6649C-0.566613 28.0946 2.05543 26.745 3.0544 25.7866C4.9571 24.1858 9.29948 21.7968 9.80605 19.886C9.7635 18.8769 8.59027 18.1069 7.87701 17.499C6.13641 16.1252 4.31071 14.7493 2.60658 13.3471C1.76161 12.6075 0.683619 11.9793 0.154753 10.9581C-0.197825 10.2185 0.347252 9.45051 1.1517 9.41606C2.17093 9.34514 3.08682 9.96113 4.00474 10.3117C5.9277 11.0817 7.85067 11.7889 9.81011 12.5508C10.4281 12.7797 11.0239 13.0269 11.6318 13.2924C12.2032 13.5355 12.961 13.8172 13.5162 13.4423C14.0471 13.0877 14.1444 12.3441 14.2619 11.7544C14.8617 8.50422 15.2264 5.17905 15.7107 1.91872C15.8607 0.887332 16.655 -0.533109 17.7998 0.41115L17.8262 0.437492L17.8302 0.429387ZM33.8806 12.3947C32.294 12.1799 31.1491 13.7098 30.0286 14.5872C28.6386 15.6611 27.1371 16.6277 25.8078 17.7847C25.1857 18.4048 24.0348 18.8931 23.9254 19.8434C24.0226 21.1808 26.1746 22.1352 27.0905 22.9599C27.5221 23.2942 27.9638 23.6124 28.4116 23.9244C29.4795 24.66 30.4561 25.5718 31.5179 26.3722C32.829 27.4218 33.9069 27.6488 35.2788 26.5485C37.4104 24.8241 39.5988 23.2031 41.7731 21.5212C42.2736 21.0896 43.0375 20.6418 43.0942 19.9265C43.0699 18.8911 41.1186 17.7563 40.3567 17.0978C38.5695 15.8192 36.9484 14.3116 35.1835 13.0209C34.8046 12.7514 34.3649 12.4839 33.9171 12.4049L33.8806 12.3988V12.3947ZM19.9234 28.6923V28.7936L19.9741 28.743L19.9234 28.6923Z" fill="#DAD9D9"/>
</svg>
