<svg width="41" height="40" viewBox="0 0 41 40" fill="none" xmlns="http://www.w3.org/2000/svg">
<path fill-rule="evenodd" clip-rule="evenodd" d="M20.517 0C9.17161 0 0 9.16663 0 20.507C0 29.572 5.87657 37.2453 14.0289 39.9611C15.0482 40.1653 15.4215 39.5198 15.4215 38.9769C15.4215 38.5015 15.3879 36.8719 15.3879 35.174C9.68061 36.3965 8.49211 32.7295 8.49211 32.7295C7.57491 30.3528 6.2159 29.742 6.2159 29.742C4.3479 28.4857 6.35197 28.4857 6.35197 28.4857C8.42407 28.6215 9.51136 30.5907 9.51136 30.5907C11.3454 33.714 14.3006 32.8315 15.4896 32.2882C15.6592 30.964 16.2031 30.0474 16.7805 29.5382C12.2285 29.0628 7.43926 27.2974 7.43926 19.4203C7.43926 17.1795 8.25399 15.3462 9.54496 13.9204C9.34128 13.4112 8.62776 11.3058 9.74906 8.48788C9.74906 8.48788 11.4814 7.94455 15.3875 10.5929C17.0598 10.144 18.7845 9.91563 20.517 9.91371C22.2493 9.91371 24.0153 10.1516 25.646 10.5929C29.5525 7.94455 31.2849 8.48788 31.2849 8.48788C32.4062 11.3058 31.6922 13.4112 31.4885 13.9204C32.8135 15.3462 33.5947 17.1795 33.5947 19.4203C33.5947 27.2974 28.8054 29.0286 24.2194 29.5382C24.9669 30.1832 25.612 31.4053 25.612 33.3407C25.612 36.0907 25.5784 38.2978 25.5784 38.9765C25.5784 39.5198 25.9521 40.1653 26.971 39.9615C35.1233 37.2448 40.9999 29.572 40.9999 20.507C41.0335 9.16663 31.8283 0 20.517 0Z" fill="#DAD9D9"/>
</svg>
