<svg width="40" height="40" viewBox="0 0 40 40" fill="none" xmlns="http://www.w3.org/2000/svg">
<path fill-rule="evenodd" clip-rule="evenodd" d="M15.5005 4.34713C15.8403 4.68686 15.9413 5.19808 15.7562 5.64147C15.054 7.32431 14.6656 9.17206 14.6656 11.1135C14.6656 18.9675 21.0325 25.3344 28.8865 25.3344C30.8279 25.3344 32.6757 24.946 34.3585 24.2438C34.8019 24.0588 35.3131 24.1597 35.6529 24.4995C35.9926 24.8392 36.0936 25.3504 35.9086 25.7938C33.4085 31.7853 27.4933 36 20.591 36C11.428 36 4 28.572 4 19.409C4 12.5067 8.21466 6.59155 14.2062 4.09143C14.6496 3.90641 15.1608 4.00741 15.5005 4.34713Z" fill="#D9D9D9"/>
</svg>
