<svg width="40" height="40" viewBox="0 0 40 40" fill="none" xmlns="http://www.w3.org/2000/svg">
<path d="M20 1C20.8072 1 21.4615 1.65435 21.4615 2.46154V6.84615C21.4615 7.65334 20.8072 8.30769 20 8.30769C19.1928 8.30769 18.5385 7.65334 18.5385 6.84615V2.46154C18.5385 1.65435 19.1928 1 20 1Z" fill="#D9D9D9"/>
<path d="M11.2308 20C11.2308 15.1569 15.1569 11.2308 20 11.2308C24.8431 11.2308 28.7692 15.1569 28.7692 20C28.7692 24.8431 24.8431 28.7692 20 28.7692C15.1569 28.7692 11.2308 24.8431 11.2308 20Z" fill="#D9D9D9"/>
<path d="M33.4351 8.63184C34.0059 8.06107 34.0059 7.13568 33.4351 6.56491C32.8644 5.99414 31.939 5.99414 31.3682 6.56491L28.2678 9.6653C27.697 10.2361 27.697 11.1615 28.2678 11.7322C28.8386 12.303 29.764 12.303 30.3347 11.7322L33.4351 8.63184Z" fill="#D9D9D9"/>
<path d="M39 20C39 20.8072 38.3456 21.4615 37.5385 21.4615H33.1538C32.3467 21.4615 31.6923 20.8072 31.6923 20C31.6923 19.1928 32.3467 18.5385 33.1538 18.5385H37.5385C38.3456 18.5385 39 19.1928 39 20Z" fill="#D9D9D9"/>
<path d="M31.368 33.435C31.9387 34.0057 32.8641 34.0057 33.4349 33.435C34.0057 32.8642 34.0057 31.9388 33.4349 31.368L30.3345 28.2676C29.7638 27.6969 28.8384 27.6969 28.2676 28.2676C27.6968 28.8384 27.6968 29.7638 28.2676 30.3346L31.368 33.435Z" fill="#D9D9D9"/>
<path d="M20 31.6923C20.8072 31.6923 21.4615 32.3467 21.4615 33.1538V37.5385C21.4615 38.3456 20.8072 39 20 39C19.1928 39 18.5385 38.3456 18.5385 37.5385V33.1538C18.5385 32.3467 19.1928 31.6923 20 31.6923Z" fill="#D9D9D9"/>
<path d="M11.7326 30.3346C12.3033 29.7638 12.3033 28.8384 11.7326 28.2677C11.1618 27.6969 10.2364 27.6969 9.66564 28.2677L6.56525 31.368C5.99448 31.9388 5.99448 32.8642 6.56525 33.435C7.13602 34.0057 8.06141 34.0057 8.63218 33.435L11.7326 30.3346Z" fill="#D9D9D9"/>
<path d="M8.30769 20C8.30769 20.8072 7.65334 21.4615 6.84615 21.4615H2.46154C1.65435 21.4615 1 20.8072 1 20C1 19.1928 1.65435 18.5385 2.46154 18.5385H6.84615C7.65334 18.5385 8.30769 19.1928 8.30769 20Z" fill="#D9D9D9"/>
<path d="M9.66542 11.7322C10.2362 12.303 11.1616 12.303 11.7323 11.7322C12.3031 11.1614 12.3031 10.2361 11.7323 9.66529L8.63196 6.56489C8.06119 5.99413 7.1358 5.99413 6.56503 6.56489C5.99426 7.13566 5.99426 8.06106 6.56503 8.63182L9.66542 11.7322Z" fill="#D9D9D9"/>
</svg>
